<?xml version="1.0" standalone="no"?>
<!DOCTYPE svg PUBLIC "-//W3C//DTD SVG 20010904//EN"
 "http://www.w3.org/TR/2001/REC-SVG-20010904/DTD/svg10.dtd">
<svg version="1.0" xmlns="http://www.w3.org/2000/svg"
 width="512.000000pt" height="512.000000pt" viewBox="0 0 512.000000 512.000000"
 preserveAspectRatio="xMidYMid meet">

<g transform="translate(0.000000,512.000000) scale(0.100000,-0.100000)"
fill="#915EFF" stroke="none">
<path d="M4258 4939 c-67 -86 -217 -168 -428 -234 -289 -91 -575 -155 -1095
-245 -495 -85 -615 -102 -1175 -165 -438 -50 -589 -74 -702 -111 l-48 -16 0
-653 0 -654 68 -21 c202 -63 786 -149 1197 -176 55 -4 109 -10 119 -14 25 -9
23 -9 -804 -105 -269 -31 -421 -57 -512 -85 l-68 -21 0 -654 0 -654 68 -21
c200 -62 787 -148 1197 -176 55 -4 108 -10 119 -14 21 -7 -166 -32 -634 -85
-315 -36 -466 -56 -570 -76 -76 -14 -180 -49 -180 -60 0 -10 150 -139 240
-205 232 -170 554 -327 823 -399 276 -75 583 -106 850 -87 568 40 1071 244
1499 607 l88 75 0 451 c0 506 2 489 -74 555 -22 20 -60 45 -83 57 -24 12 -43
24 -43 29 0 4 13 14 28 22 49 26 134 109 153 151 17 37 19 83 19 703 0 744 4
701 -74 768 -22 20 -60 45 -83 57 -24 12 -43 24 -43 28 0 4 19 18 43 32 53 31
124 107 143 152 15 38 17 359 5 975 l-6 316 -37 -47z"/>
</g>
</svg>
